<svg xmlns="http://www.w3.org/2000/svg" width="1801" height="181" fill="none"><path fill="#000" d="M.4 91.135c0-17.472 3.834-33.05 11.5-46.73 7.827-13.682 18.608-24.396 32.345-32.144C57.98 4.514 73.475.641 90.725.641c17.409 0 32.982 3.873 46.719 11.62 13.736 7.583 24.437 18.215 32.104 31.896 7.827 13.681 11.74 29.176 11.74 46.484 0 17.472-3.913 33.049-11.74 46.73-7.667 13.517-18.448 24.149-32.344 31.896-13.736 7.582-29.389 11.374-46.959 11.374-17.09 0-32.504-3.792-46.24-11.374-13.577-7.582-24.278-18.132-32.105-31.648C4.235 123.937.4 108.443.4 91.135Zm90.085 46.484c8.146 0 15.573-1.896 22.281-5.687 6.709-3.956 11.98-9.478 15.813-16.566 3.833-7.088 5.75-15.247 5.75-24.478 0-9.396-1.917-17.638-5.75-24.725-3.833-7.088-9.104-12.528-15.813-16.32-6.548-3.955-13.896-5.933-22.042-5.933-8.305 0-15.733 1.978-22.281 5.934-6.549 3.791-11.74 9.23-15.573 16.319-3.674 7.088-5.51 15.33-5.51 24.725 0 9.231 1.836 17.39 5.51 24.478 3.833 7.088 9.024 12.61 15.573 16.566 6.549 3.791 13.896 5.687 22.042 5.687ZM205.293 10.778c0-2.308.479-3.956 1.438-4.945 1.118-1.154 2.795-1.73 5.031-1.73h32.344c2.396 0 4.073.576 5.031 1.73 1.118.989 1.678 2.637 1.678 4.945V98.8c0 12.527 2.635 22.17 7.906 28.929 5.43 6.593 13.337 9.89 23.719 9.89 10.382 0 18.288-3.297 23.719-9.89 5.431-6.759 8.146-16.402 8.146-28.929V10.778c0-2.308.479-3.956 1.437-4.945 1.118-1.154 2.795-1.73 5.032-1.73h32.344c2.396 0 4.073.576 5.031 1.73 1.118.989 1.677 2.637 1.677 4.945v91.484c0 17.142-3.274 31.565-9.823 43.269-6.549 11.703-15.813 20.522-27.792 26.456-11.819 5.769-25.556 8.654-41.209 8.654-15.173 0-28.431-2.803-39.771-8.407-11.34-5.769-20.205-14.423-26.594-25.962-6.229-11.703-9.344-26.208-9.344-43.516V10.778ZM425.566 50.833c0-1.484-.319-2.473-.958-2.967-.479-.66-1.438-.99-2.875-.99h-36.178c-4.312 0-6.468-2.224-6.468-6.675V10.778c0-4.45 2.156-6.676 6.468-6.676h125.543c2.237 0 3.834.577 4.792 1.73 1.118.99 1.677 2.638 1.677 4.946v29.423c0 2.308-.559 4.038-1.677 5.192-.958.99-2.555 1.484-4.792 1.484h-36.177c-1.438 0-2.476.33-3.115.989-.479.494-.718 1.483-.718 2.967v119.67c0 2.308-.559 4.039-1.677 5.193-.959.989-2.556 1.483-4.792 1.483h-32.584c-2.236 0-3.913-.494-5.031-1.483-.959-1.154-1.438-2.885-1.438-5.193V50.833ZM543.933 125.751c1.437-2.473 3.035-3.709 4.792-3.709 1.277 0 2.875.741 4.791 2.225 5.91 4.451 12.379 8.077 19.407 10.879 7.028 2.637 14.056 3.956 21.083 3.956 7.028 0 12.299-1.071 15.813-3.214 3.674-2.308 5.511-5.357 5.511-9.148 0-2.638-.879-4.863-2.636-6.676-1.757-1.813-4.632-3.379-8.625-4.698-3.833-1.484-9.583-3.214-17.25-5.192-11.82-2.967-21.563-6.594-29.23-10.88-7.666-4.45-13.576-10.137-17.729-17.06-3.993-6.923-5.99-15.412-5.99-25.467 0-11.703 2.716-21.758 8.146-30.165 5.591-8.571 13.257-15 23.001-19.286C574.76 2.866 585.94.641 598.559.641c22.68 0 42.806 7.335 60.375 22.005 1.917 1.484 2.875 3.214 2.875 5.192 0 1.649-.559 3.297-1.677 4.945l-14.375 22.748c-1.438 2.143-2.955 3.214-4.552 3.214-1.597 0-3.115-.66-4.552-1.978-12.938-9.725-25.476-14.588-37.615-14.588-5.75 0-10.223 1.154-13.417 3.462-3.195 2.142-4.792 5.027-4.792 8.654 0 2.802.879 5.11 2.636 6.922 1.757 1.814 4.392 3.38 7.906 4.698 3.514 1.154 8.785 2.638 15.813 4.45 12.618 3.133 22.92 7.006 30.906 11.622 7.986 4.45 13.976 10.137 17.969 17.06 4.153 6.758 6.229 15 6.229 24.725 0 11.704-2.795 21.841-8.385 30.413-5.59 8.571-13.497 15.164-23.719 19.78-10.222 4.45-22.122 6.676-35.698 6.676-12.299 0-23.719-1.896-34.261-5.687-10.542-3.956-19.966-9.313-28.271-16.072-1.278-.989-2.236-1.895-2.875-2.719a5.813 5.813 0 0 1-.959-3.215c0-1.648.719-3.544 2.157-5.687l13.656-21.51ZM724.113 50.833c0-1.484-.32-2.473-.959-2.967-.479-.66-1.437-.99-2.875-.99h-36.177c-4.313 0-6.469-2.224-6.469-6.675V10.778c0-4.45 2.156-6.676 6.469-6.676h125.543c2.236 0 3.833.577 4.792 1.73 1.118.99 1.677 2.638 1.677 4.946v29.423c0 2.308-.559 4.038-1.677 5.192-.959.99-2.556 1.484-4.792 1.484h-36.177c-1.438 0-2.476.33-3.115.989-.479.494-.719 1.483-.719 2.967v119.67c0 2.308-.559 4.039-1.677 5.193-.958.989-2.555 1.483-4.792 1.483h-32.583c-2.236 0-3.914-.494-5.032-1.483-.958-1.154-1.437-2.885-1.437-5.193V50.833ZM823.444 80.503c0-17.307 3.274-31.978 9.823-44.01 6.548-12.034 15.653-21.017 27.313-26.951C872.399 3.608 886.055.64 901.549.64c15.174 0 28.51 2.967 40.011 8.9 11.5 5.77 20.444 14.671 26.833 26.704 6.389 11.868 9.584 26.62 9.584 44.258v90c0 2.308-.559 4.039-1.677 5.193-.959.989-2.636 1.483-5.032 1.483h-32.344c-2.236 0-3.913-.494-5.031-1.483-.958-1.154-1.438-2.885-1.438-5.193v-35.357c0-1.648-.319-2.72-.958-3.214-.479-.495-1.438-.742-2.875-.742h-55.824c-1.597 0-2.635.247-3.114.742-.479.494-.719 1.566-.719 3.214v35.357c0 2.308-.559 4.039-1.677 5.193-.958.989-2.635 1.483-5.031 1.483h-32.344c-2.237 0-3.914-.494-5.032-1.483-.958-1.154-1.437-2.885-1.437-5.193v-90Zm105.178 9.149c1.437 0 2.396-.248 2.875-.742.639-.66.958-1.648.958-2.967V82.48c0-12.362-2.715-21.84-8.146-28.434-5.43-6.758-13.337-10.137-23.719-10.137-10.382 0-18.288 3.379-23.719 10.137-5.27 6.594-7.906 16.072-7.906 28.434v3.462c0 1.319.24 2.308.719 2.967.639.494 1.677.742 3.114.742h55.824ZM1009.22 80.009c0-17.308 3.27-31.896 9.82-43.764 6.55-11.868 15.65-20.77 27.31-26.703 11.82-5.934 25.48-8.901 40.97-8.901 15.18 0 28.51 2.967 40.01 8.9 11.5 5.77 20.45 14.589 26.84 26.457 6.38 11.868 9.58 26.538 9.58 44.01v90.495c0 2.308-.56 4.039-1.68 5.193-.96.989-2.63 1.483-5.03 1.483h-32.34c-2.24 0-3.92-.494-5.03-1.483-.96-1.154-1.44-2.885-1.44-5.193V82.481c0-12.362-2.72-21.84-8.15-28.434-5.43-6.758-13.33-10.137-23.72-10.137-10.38 0-18.29 3.379-23.72 10.137-5.27 6.594-7.9 16.072-7.9 28.434v88.022c0 2.308-.56 4.039-1.68 5.193-.96.989-2.63 1.483-5.03 1.483h-32.34c-2.24 0-3.92-.494-5.04-1.483-.95-1.154-1.43-2.885-1.43-5.193V80.009ZM1196.19 10.778c0-2.308.48-3.956 1.43-4.945 1.12-1.154 2.8-1.73 5.04-1.73h61.33c19.49 0 36.1 3.46 49.83 10.384 13.9 6.923 24.44 16.73 31.63 29.423 7.19 12.692 10.78 27.61 10.78 44.753 0 17.967-3.83 33.626-11.5 46.978-7.51 13.186-18.53 23.406-33.06 30.659-14.38 7.253-31.71 10.879-51.99 10.879h-57.02c-2.24 0-3.92-.494-5.04-1.483-.95-1.154-1.43-2.885-1.43-5.193V10.778Zm63.49 124.121c16.29 0 28.59-3.956 36.89-11.868 8.47-7.912 12.7-18.956 12.7-33.132 0-8.901-1.84-16.566-5.51-22.995-3.67-6.593-9.18-11.62-16.53-15.082-7.19-3.626-16.05-5.44-26.59-5.44h-15.1c-1.6 0-2.63.33-3.11.99-.48.494-.72 1.483-.72 2.966v80.605c0 1.483.24 2.555.72 3.214.48.495 1.51.742 3.11.742h14.14ZM1381.49 10.778c0-2.308.48-3.956 1.44-4.945 1.12-1.154 2.79-1.73 5.03-1.73h32.34c2.4 0 4.08.576 5.04 1.73 1.11.989 1.67 2.637 1.67 4.945v159.725c0 2.308-.56 4.039-1.67 5.193-.96.989-2.64 1.483-5.04 1.483h-32.34c-2.24 0-3.91-.494-5.03-1.483-.96-1.154-1.44-2.885-1.44-5.193V10.778ZM1459.38 80.009c0-17.308 3.27-31.896 9.82-43.764 6.55-11.868 15.65-20.77 27.31-26.703 11.82-5.934 25.48-8.901 40.97-8.901 15.17 0 28.51 2.967 40.01 8.9 11.5 5.77 20.45 14.589 26.84 26.457 6.38 11.868 9.58 26.538 9.58 44.01v90.495c0 2.308-.56 4.039-1.68 5.193-.96.989-2.63 1.483-5.03 1.483h-32.34c-2.24 0-3.92-.494-5.03-1.483-.96-1.154-1.44-2.885-1.44-5.193V82.481c0-12.362-2.72-21.84-8.15-28.434-5.43-6.758-13.34-10.137-23.72-10.137-10.38 0-18.29 3.379-23.72 10.137-5.27 6.594-7.9 16.072-7.9 28.434v88.022c0 2.308-.56 4.039-1.68 5.193-.96.989-2.64 1.483-5.03 1.483h-32.35c-2.23 0-3.91-.494-5.03-1.483-.95-1.154-1.43-2.885-1.43-5.193V80.009ZM1754.88 95.833c0-2.308.48-4.038 1.44-5.192 1.11-1.154 2.79-1.731 5.03-1.731h32.58c2.24 0 3.83.577 4.79 1.73 1.12 1.154 1.68 2.885 1.68 5.193v57.61c0 2.637-.48 4.698-1.44 6.181-.8 1.484-2.31 2.885-4.55 4.203-10.54 5.44-21.32 9.643-32.34 12.61-10.86 2.803-22.28 4.204-34.26 4.204-17.09 0-32.51-3.627-46.24-10.88-13.58-7.417-24.28-17.802-32.11-31.153-7.67-13.352-11.5-28.764-11.5-46.237 0-18.131 3.91-34.12 11.74-47.967 7.83-13.846 18.69-24.56 32.58-32.143 14.06-7.747 29.95-11.62 47.68-11.62 11.82 0 23.08 1.73 33.78 5.192 10.86 3.461 20.61 8.242 29.23 14.34 2.88 1.979 4.32 4.04 4.32 6.182 0 1.483-.64 3.132-1.92 4.945l-13.42 21.758c-1.75 2.802-3.59 4.203-5.51 4.203-1.44 0-3.03-.576-4.79-1.73-6.39-3.791-12.94-6.676-19.65-8.654-6.7-1.978-13.89-2.967-21.56-2.967-9.42 0-17.57 2.06-24.44 6.181-6.86 3.956-12.14 9.56-15.81 16.813-3.51 7.088-5.27 15.165-5.27 24.231 0 9.066 1.84 17.225 5.51 24.478 3.67 7.088 8.79 12.61 15.33 16.566 6.71 3.956 14.3 5.934 22.76 5.934 9.11 0 16.62-1.236 22.53-3.709 1.43-.494 2.39-1.071 2.87-1.73.64-.825.96-2.061.96-3.709V95.833Z"/></svg>