<svg width="24" height="24" viewBox="0 0 24 24" fill="none" xmlns="http://www.w3.org/2000/svg">
<path d="M11.943 1.75H12.057C14.248 1.75 15.969 1.75 17.312 1.931C18.689 2.116 19.781 2.503 20.639 3.361C21.497 4.219 21.884 5.311 22.069 6.688C22.25 8.031 22.25 9.752 22.25 11.943V12.057C22.25 14.248 22.25 15.969 22.069 17.312C21.884 18.689 21.497 19.781 20.639 20.639C19.781 21.497 18.689 21.884 17.312 22.069C15.969 22.25 14.248 22.25 12.057 22.25H11.943C9.752 22.25 8.031 22.25 6.688 22.069C5.311 21.884 4.219 21.497 3.361 20.639C2.503 19.781 2.116 18.689 1.931 17.312C1.75 15.969 1.75 14.248 1.75 12.057V11.943C1.75 9.752 1.75 8.031 1.931 6.688C2.116 5.311 2.503 4.219 3.361 3.361C4.219 2.503 5.311 2.116 6.688 1.931C8.031 1.75 9.752 1.75 11.943 1.75ZM4.422 4.422C3.889 4.955 3.58 5.678 3.417 6.888C3.252 8.12 3.25 9.74 3.25 12C3.25 14.26 3.252 15.88 3.417 17.112C3.58 18.322 3.889 19.045 4.422 19.578C4.955 20.111 5.678 20.42 6.888 20.583C8.12 20.748 9.74 20.75 12 20.75C14.26 20.75 15.88 20.748 17.112 20.583C18.322 20.42 19.045 20.111 19.578 19.578C20.111 19.045 20.42 18.322 20.583 17.112C20.748 15.88 20.75 14.26 20.75 12C20.75 9.74 20.748 8.12 20.583 6.888C20.42 5.678 20.111 4.955 19.578 4.422C19.045 3.889 18.322 3.58 17.112 3.417C15.88 3.252 14.26 3.25 12 3.25C9.74 3.25 8.12 3.252 6.888 3.417C5.678 3.58 4.955 3.889 4.422 4.422ZM15.074 7.254C15.792 7.325 16.44 7.5 16.948 8.015C17.402 8.475 17.586 9.045 17.67 9.679C17.75 10.279 17.75 11.036 17.75 11.945V12.055C17.75 12.964 17.75 13.721 17.67 14.321C17.586 14.955 17.402 15.525 16.948 15.985C16.44 16.5 15.792 16.675 15.074 16.746C14.662 16.787 14.295 16.486 14.254 16.074C14.213 15.662 14.514 15.295 14.926 15.254C15.508 15.196 15.735 15.078 15.88 14.931C16.013 14.797 16.121 14.594 16.183 14.124C16.248 13.633 16.25 12.976 16.25 12C16.25 11.024 16.248 10.367 16.183 9.876C16.121 9.406 16.013 9.203 15.88 9.069C15.735 8.922 15.508 8.804 14.926 8.746C14.514 8.705 14.213 8.338 14.254 7.926C14.295 7.513 14.662 7.213 15.074 7.254ZM9.074 8.746C8.492 8.804 8.265 8.922 8.119 9.069C7.987 9.203 7.879 9.406 7.817 9.876C7.752 10.367 7.75 11.024 7.75 12C7.75 12.976 7.752 13.633 7.817 14.124C7.879 14.594 7.987 14.797 8.119 14.931C8.265 15.078 8.492 15.196 9.074 15.254C9.487 15.295 9.787 15.662 9.746 16.074C9.705 16.486 9.338 16.787 8.926 16.746C8.208 16.675 7.56 16.5 7.052 15.985C6.598 15.525 6.414 14.955 6.33 14.321C6.25 13.72 6.25 12.962 6.25 12.052V11.948C6.25 11.038 6.25 10.28 6.33 9.679C6.414 9.045 6.598 8.475 7.052 8.015C7.56 7.5 8.208 7.325 8.926 7.254C9.338 7.213 9.705 7.513 9.746 7.926C9.787 8.338 9.487 8.705 9.074 8.746Z" fill="#141B34"/>
</svg>
