<svg width="24" height="24" viewBox="0 0 24 24" fill="none" xmlns="http://www.w3.org/2000/svg">
<path d="M12 1.25C17.937 1.25 22.75 6.063 22.75 12C22.75 17.937 17.937 22.75 12 22.75C6.063 22.75 1.25 17.937 1.25 12C1.25 6.063 6.063 1.25 12 1.25ZM2.75 12C2.75 17.109 6.891 21.25 12 21.25C17.109 21.25 21.25 17.109 21.25 12C21.25 6.891 17.109 2.75 12 2.75C6.891 2.75 2.75 6.891 2.75 12ZM7.576 9.765C7.311 10.083 6.838 10.126 6.52 9.861C6.202 9.596 6.159 9.123 6.424 8.804C7.367 7.673 8.424 7.155 9.571 7.264C10.646 7.366 11.629 8.01 12.495 8.77C13.296 9.473 13.98 9.853 14.571 9.909C15.091 9.959 15.7 9.77 16.424 8.902C16.689 8.584 17.162 8.541 17.48 8.806C17.798 9.071 17.841 9.544 17.576 9.862C16.633 10.993 15.576 11.512 14.429 11.403C13.354 11.3 12.371 10.656 11.505 9.897C10.704 9.194 10.02 8.814 9.429 8.757C8.909 8.708 8.3 8.897 7.576 9.765ZM7.576 15.098C7.311 15.416 6.838 15.459 6.52 15.194C6.202 14.929 6.159 14.456 6.424 14.138C7.367 13.007 8.424 12.488 9.571 12.597C10.646 12.7 11.629 13.344 12.495 14.103C13.296 14.806 13.98 15.186 14.571 15.243C15.091 15.292 15.7 15.103 16.424 14.235C16.689 13.917 17.162 13.874 17.48 14.139C17.798 14.405 17.841 14.877 17.576 15.196C16.633 16.327 15.576 16.845 14.429 16.736C13.354 16.634 12.371 15.99 11.505 15.23C10.704 14.527 10.02 14.147 9.429 14.091C8.909 14.041 8.3 14.23 7.576 15.098Z" fill="#141B34"/>
</svg>
