<svg width="24" height="24" viewBox="0 0 24 24" fill="none" xmlns="http://www.w3.org/2000/svg">
<path d="M10.362 2.01499C11.426 1.66199 12.574 1.66199 13.638 2.01499C14.698 2.36699 15.53 3.20099 16.367 4.37399C17.2 5.54299 18.121 7.17199 19.308 9.27299L19.354 9.35499C20.542 11.456 21.462 13.085 22.036 14.406C22.613 15.734 22.9 16.881 22.671 17.982C22.44 19.091 21.871 20.1 21.043 20.862C20.216 21.622 19.091 21.943 17.674 22.097C16.264 22.25 14.421 22.25 12.049 22.25H11.951C9.579 22.25 7.736 22.25 6.326 22.097C4.909 21.943 3.784 21.622 2.957 20.862C2.129 20.1 1.56 19.091 1.329 17.982C1.1 16.881 1.387 15.734 1.964 14.406C2.538 13.085 3.458 11.456 4.646 9.35499L4.692 9.27299C5.879 7.17199 6.8 5.54299 7.633 4.37399C8.47 3.20099 9.302 2.36699 10.362 2.01499ZM13.165 3.43899C12.408 3.18699 11.592 3.18699 10.835 3.43899C10.239 3.63599 9.639 4.14399 8.855 5.24499C8.073 6.34099 7.19 7.90099 5.975 10.052C4.759 12.202 3.878 13.764 3.34 15.004C2.8 16.247 2.665 17.038 2.797 17.677C2.965 18.482 3.378 19.21 3.973 19.758C4.44 20.188 5.169 20.462 6.489 20.606C7.807 20.749 9.569 20.75 12 20.75C14.431 20.75 16.193 20.749 17.511 20.606C18.831 20.462 19.56 20.188 20.027 19.758C20.622 19.21 21.035 18.482 21.202 17.677C21.335 17.038 21.2 16.247 20.66 15.004C20.122 13.764 19.241 12.202 18.025 10.052C16.81 7.90099 15.927 6.34099 15.145 5.24499C14.361 4.14399 13.762 3.63599 13.165 3.43899Z" fill="#141B34"/>
<path d="M15 13H8.9999" stroke="#141B34" stroke-width="1.5" stroke-linecap="round" stroke-linejoin="round"/>
<path d="M13.5 9H10.5" stroke="#141B34" stroke-width="1.5" stroke-linecap="round" stroke-linejoin="round"/>
<path d="M17 17H7" stroke="#141B34" stroke-width="1.5" stroke-linecap="round" stroke-linejoin="round"/>
</svg>
